<svg width="142" height="96" viewBox="0 0 142 96" fill="none" xmlns="http://www.w3.org/2000/svg">
<g clip-path="url(#clip0_101_1880)">
<path d="M27.2531 80.0969C27.2455 80.242 27.2683 80.3871 27.3199 80.5229C27.3715 80.6588 27.4509 80.7823 27.553 80.8858C27.655 80.9892 27.7775 81.0702 27.9126 81.1237C28.0478 81.1771 28.1925 81.2018 28.3377 81.1962H29.3833V81.719H19.773V81.1962H20.8186C20.965 81.2039 21.1114 81.1808 21.2482 81.1283C21.3851 81.0758 21.5094 80.9951 21.6131 80.8914C21.7168 80.7878 21.7975 80.6634 21.85 80.5266C21.9025 80.3897 21.9256 80.2433 21.9179 80.0969V65.3957C21.9179 59.8504 19.5141 56.9189 16.1136 56.9189C11.6138 56.9189 8.47229 61.8926 8.47229 68.5323V80.0969C8.4589 80.24 8.47632 80.3843 8.52338 80.5202C8.57044 80.656 8.64604 80.7801 8.7451 80.8843C8.84416 80.9884 8.96438 81.0702 9.09768 81.124C9.23097 81.1778 9.37424 81.2024 9.51784 81.1962H10.6171V81.719H0.938477V81.1962H2.03777C2.18159 81.2032 2.32523 81.1791 2.4589 81.1256C2.59258 81.0721 2.71314 80.9904 2.81238 80.8861C2.91161 80.7817 2.98718 80.6572 3.03394 80.521C3.0807 80.3849 3.09754 80.2402 3.08332 80.0969V45.1492C3.09351 45.0093 3.07345 44.8688 3.02451 44.7373C2.97557 44.6058 2.8989 44.4864 2.7997 44.3872C2.7005 44.288 2.58111 44.2114 2.44963 44.1624C2.31816 44.1135 2.17769 44.0934 2.03777 44.1036H0.938477V43.5808L7.94952 42.506H8.47229V63.8518C9.88428 57.9889 13.9688 54.3295 19.0402 54.3295C24.2191 54.3295 27.2531 58.0426 27.2531 64.3208V80.0969Z" fill="#2B4B40"/>
<path d="M55.5021 84.8019C59.6961 83.8871 63.9715 83.3961 68.2637 83.3362C75.1672 83.3362 79.9895 84.9533 79.9895 89.243C79.9895 93.5327 75.1281 95.9951 67.6481 95.9951C59.2739 95.9951 53.626 92.9073 51.061 87.0493C40.3367 90.6061 28.8308 95.9951 17.5301 95.9951C9.10706 95.9951 2.14976 93.0099 0.429975 88.515C-0.512974 86.209 0.166145 84.1179 2.26213 84.1179C3.46402 84.1179 4.876 84.8507 6.81076 86.5607C10.3187 89.8049 15.2875 92.58 21.468 92.58C28.8455 92.58 39.5159 88.6714 50.6603 85.8816C50.0471 84.0064 49.7178 82.05 49.6832 80.0774V74.6542C48.7451 78.3673 46.5465 82.2417 41.3774 82.2417C36.3549 82.2417 32.4316 78.5774 32.4316 73.7161C32.4316 68.3418 37.1415 63.9837 43.9913 63.9837C45.9473 63.9526 47.8887 64.3269 49.6929 65.083C49.6441 57.9694 47.7093 54.8229 44.3186 54.8229C41.2308 54.8229 39.3987 57.4417 38.7196 58.8537C36.6773 63.0896 32.8078 60.9448 34.9527 57.8081C36.6285 55.3653 40.4442 54.3002 44.1574 54.3002C50.9584 54.3002 55.0428 57.7544 55.0428 66.1237V80.092C55.0481 81.6729 55.2019 83.2498 55.5021 84.8019ZM49.6392 69.4753C48.3689 66.6513 46.2925 64.4918 43.7275 64.4918C40.4345 64.4918 38.0258 67.9949 38.0258 72.7585C38.0258 77.4146 40.2781 80.0871 43.3122 80.0871C48.0709 80.0871 49.6392 73.7063 49.6392 70.0958V69.4753ZM66.7393 95.4772C71.757 95.4772 75.6851 92.966 75.6851 89.3554C75.6851 85.7448 71.9671 83.9811 66.2654 83.9811C62.6654 84.0386 59.0914 84.6028 55.6487 85.6569C57.0704 92.023 60.8862 95.4772 66.7491 95.4772H66.7393Z" fill="#2B4B40"/>
<path d="M60.3099 45.1492C60.3201 45.0093 60.3 44.8688 60.2511 44.7373C60.2021 44.6058 60.1255 44.4864 60.0263 44.3872C59.9271 44.288 59.8077 44.2114 59.6762 44.1624C59.5447 44.1135 59.4042 44.0934 59.2643 44.1036H58.165V43.5808L65.1761 42.506H65.6989V61.8096C66.5392 58.1501 68.6303 54.3295 73.2864 54.3295C78.9343 54.3295 82.9651 59.8748 82.9651 67.7213C82.9651 76.3007 78.0451 82.2662 70.9852 82.2662C68.3665 82.2662 65.0735 81.4258 63.168 79.4911L60.818 81.7434H60.2903L60.3099 45.1492ZM65.6842 76.7453C66.891 79.5741 68.9283 81.719 71.0585 81.719C74.2489 81.719 77.283 76.3447 77.283 68.3271C77.283 61.4187 75.0355 56.4499 71.3712 56.4499C67.2428 56.4499 65.6695 62.8307 65.6695 66.4412L65.6842 76.7453Z" fill="#2B4B40"/>
<path d="M95.4628 81.1962V81.7189H85.7842V81.1962H86.8835C87.0273 81.2032 87.1709 81.1791 87.3046 81.1256C87.4383 81.0721 87.5588 80.9904 87.6581 80.886C87.7573 80.7817 87.8329 80.6572 87.8796 80.521C87.9264 80.3848 87.9432 80.2401 87.929 80.0969V57.5492C87.9432 57.4059 87.9264 57.2612 87.8796 57.125C87.8329 56.9888 87.7573 56.8643 87.6581 56.76C87.5588 56.6556 87.4383 56.5739 87.3046 56.5204C87.1709 56.4669 87.0273 56.4428 86.8835 56.4499H85.7842V55.9271L92.7952 54.8278H93.318V80.0969C93.3046 80.24 93.322 80.3843 93.3691 80.5201C93.4161 80.6559 93.4917 80.7801 93.5908 80.8843C93.6899 80.9884 93.8101 81.0701 93.9434 81.1239C94.0767 81.1777 94.2199 81.2024 94.3635 81.1962H95.4628ZM90.6015 41.9587C92.7415 41.9587 94.1046 43.3219 94.1046 45.4667C94.1046 47.6115 92.7415 48.9698 90.6015 48.9698C88.4616 48.9698 87.0936 47.6115 87.0936 45.4667C87.0936 43.3219 88.4323 41.9587 90.6015 41.9587Z" fill="#2B4B40"/>
<path d="M105.767 47.8802V54.8375H114.4V55.4141H105.767V69.0941C105.767 76.3153 106.256 80.0822 109.588 80.0822C112.099 80.0822 114.244 78.0937 116.335 75.0059L116.701 75.3723C114.82 78.3038 111.816 82.2124 106.817 82.2124C101.819 82.2124 100.432 78.2354 100.432 69.8661V55.4043H97.0117V54.8278H100.676L105.244 47.8802H105.767Z" fill="#2B4B40"/>
<path d="M119.369 61.6288C119.369 57.7202 122.979 54.3002 128.994 54.3002C132.238 54.3002 136.058 55.3457 137.729 57.8081C139.874 60.9448 136.005 63.0896 133.963 58.8537C133.283 57.4417 131.451 54.8229 128.525 54.8229C127.961 54.8146 127.401 54.9176 126.877 55.1262C126.354 55.3348 125.876 55.6447 125.473 56.0384C125.069 56.432 124.747 56.9014 124.526 57.4198C124.304 57.9381 124.187 58.4952 124.181 59.0589C124.181 65.6009 139.459 65.7572 139.459 74.3366C139.459 78.939 135.169 82.2369 128.891 82.2369C125.383 82.2369 121.562 81.2597 119.892 78.7289C117.747 75.5922 121.621 73.5011 123.658 77.6833C124.338 79.1491 126.17 81.7141 129.521 81.7141C132.663 81.7141 134.651 79.5155 134.651 76.7404C134.647 69.1626 119.369 69.6854 119.369 61.6288Z" fill="#2B4B40"/>
<path d="M0.19043 36.3206V35.832H1.16758C1.29538 35.8383 1.42302 35.8169 1.5418 35.7693C1.66057 35.7217 1.76768 35.6491 1.8558 35.5563C1.94393 35.4635 2.011 35.3528 2.05243 35.2318C2.09386 35.1107 2.10868 34.9822 2.09587 34.8548V4.36781C2.10868 4.2405 2.09386 4.11192 2.05243 3.99087C2.011 3.86981 1.94393 3.75912 1.8558 3.66635C1.76768 3.57359 1.66057 3.50094 1.5418 3.45336C1.42302 3.40578 1.29538 3.38439 1.16758 3.39066H0.19043V2.9314H12.2142C17.8768 2.9314 26.0507 6.69342 26.0507 19.6064C26.0507 32.5195 17.8866 36.3206 12.2142 36.3206H0.19043ZM9.85443 35.832C15.2288 35.832 21.2773 32.2556 21.2773 19.5771C21.2773 6.89862 15.2385 3.39066 9.85443 3.39066H7.81708C7.68928 3.38439 7.56164 3.40578 7.44286 3.45336C7.32409 3.50094 7.21698 3.57359 7.12885 3.66635C7.04073 3.75912 6.97366 3.86981 6.93223 3.99087C6.8908 4.11192 6.87598 4.2405 6.88879 4.36781V34.8793C6.87598 35.0066 6.8908 35.1352 6.93223 35.2562C6.97366 35.3773 7.04073 35.488 7.12885 35.5807C7.21698 35.6735 7.32409 35.7461 7.44286 35.7937C7.56164 35.8413 7.68928 35.8627 7.81708 35.8564L9.85443 35.832Z" fill="#2B4B40"/>
<path d="M51.2368 35.8565V36.3451H44.5483V30.0473C43.7128 33.3452 41.7634 36.7848 37.2196 36.7848C32.6759 36.7848 29.2314 33.5309 29.2314 29.2119C29.2314 24.4287 33.4136 20.5739 39.4915 20.5739C41.2281 20.5466 42.9515 20.8793 44.5531 21.551C44.5043 15.2338 42.7894 12.4489 39.77 12.4489C37.0291 12.4489 35.451 14.7696 34.8012 16.0253C32.9886 19.7873 29.5539 17.8818 31.4545 15.097C32.9202 12.913 36.3402 11.9847 39.6283 11.9847C45.6622 11.9847 49.3461 15.0481 49.3461 22.4744V34.8793C49.3332 35.0067 49.3481 35.1352 49.3895 35.2563C49.4309 35.3773 49.498 35.488 49.5861 35.5808C49.6742 35.6736 49.7814 35.7462 49.9001 35.7938C50.0189 35.8414 50.1466 35.8628 50.2743 35.8565H51.2368ZM44.5483 25.4499C43.4343 22.9435 41.5777 21.0527 39.301 21.0527C36.3695 21.0527 34.2393 24.1649 34.2393 28.3813C34.2393 32.5146 36.2327 34.8842 38.9736 34.8842C43.1558 34.8842 44.5483 29.2168 44.5483 26.0117V25.4499Z" fill="#2B4B40"/>
<path d="M62.2932 35.8565V36.3451H53.6992V35.8565H54.6764C54.8042 35.8627 54.9318 35.8414 55.0506 35.7938C55.1694 35.7462 55.2765 35.6735 55.3646 35.5808C55.4527 35.488 55.5198 35.3773 55.5612 35.2563C55.6026 35.1352 55.6175 35.0066 55.6047 34.8793V14.8478C55.6175 14.7205 55.6026 14.5919 55.5612 14.4708C55.5198 14.3498 55.4527 14.2391 55.3646 14.1463C55.2765 14.0536 55.1694 13.9809 55.0506 13.9333C54.9318 13.8857 54.8042 13.8644 54.6764 13.8706H53.6992V13.3821L59.9237 12.4049H60.3878V34.8793C60.375 35.0066 60.3898 35.1352 60.4312 35.2563C60.4727 35.3773 60.5397 35.488 60.6279 35.5808C60.716 35.6735 60.8231 35.7462 60.9419 35.7938C61.0606 35.8414 61.1883 35.8627 61.3161 35.8565H62.2932ZM57.9742 1.02112C59.8748 1.02112 61.0816 2.2279 61.0816 4.13334C61.0816 6.03878 59.8748 7.24556 57.9742 7.24556C56.0737 7.24556 54.862 6.03878 54.862 4.13334C54.862 2.2279 56.0688 1.02112 57.9742 1.02112Z" fill="#2B4B40"/>
<path d="M73.3938 35.8564V36.345H64.7998V35.8564H65.777C65.9048 35.8627 66.0324 35.8413 66.1512 35.7937C66.2699 35.7462 66.377 35.6735 66.4652 35.5807C66.5533 35.488 66.6204 35.3773 66.6618 35.2562C66.7032 35.1352 66.7181 35.0066 66.7052 34.8793V3.85483C66.7123 3.73107 66.6932 3.6072 66.649 3.49137C66.6049 3.37553 66.5368 3.27033 66.4491 3.18268C66.3614 3.09502 66.2562 3.02689 66.1404 2.98274C66.0246 2.9386 65.9007 2.91945 65.777 2.92654H64.7998V2.44285L71.0242 1.4657H71.4884V34.8793C71.4756 35.0066 71.4904 35.1352 71.5318 35.2562C71.5733 35.3773 71.6403 35.488 71.7285 35.5807C71.8166 35.6735 71.9237 35.7462 72.0425 35.7937C72.1612 35.8413 72.2889 35.8627 72.4167 35.8564H73.3938Z" fill="#2B4B40"/>
<path d="M86.859 36.3206C83.8885 43.2388 81.7046 47.7924 76.9214 47.7924C74.8303 47.7924 71.9038 46.8641 70.4185 44.6801C68.5131 41.8464 71.4885 40.454 73.8092 43.3317C74.3662 44.0303 76.5013 46.3511 78.5924 46.3511C81.2404 46.3511 83.7029 42.6379 86.3509 36.3206H86.3021L77.1071 13.8462C76.9934 13.5831 76.8051 13.3591 76.5654 13.2019C76.3257 13.0448 76.0452 12.9613 75.7586 12.9619H74.8303V12.4733H83.8397V12.9619H82.8185C82.2616 12.9619 82.0319 13.2892 82.2616 13.7973L88.9501 30.145L95.5948 14.6572C96.1836 13.2973 96.6338 11.8814 96.9383 10.4311C95.5075 10.8456 94.0302 11.0787 92.5412 11.1248C88.6326 11.1248 85.7598 8.98977 85.7598 6.06321C85.7598 3.32231 88.2026 1.46572 91.7057 1.46572C96.2494 1.46572 98.4725 4.59749 97.637 9.77149C104.233 7.2651 113.565 0 125.921 0C133.381 0 139.576 2.69205 141.154 6.63973C141.946 8.68685 141.34 10.5483 139.483 10.5483C138.413 10.5483 137.163 9.94249 135.443 8.3644C131.945 4.99948 127.291 3.10248 122.437 3.06336C114.356 3.06336 104.883 8.26668 97.5197 10.3089C97.1832 11.7991 96.7089 13.2548 96.1029 14.6572L86.859 36.3206ZM97.0312 9.9376C97.9155 5.15446 96.1957 2.18393 92.9467 2.18393C90.7139 2.18393 89.0918 3.57637 89.0918 5.98992C89.0918 8.40348 90.8996 10.5434 93.875 10.5434C94.9519 10.5051 96.0166 10.3008 97.0312 9.9376Z" fill="#2B4B40"/>
</g>
<defs>
<clipPath id="clip0_101_1880">
<rect width="141.491" height="96" fill="white"/>
</clipPath>
</defs>
</svg>
