<svg width="103" height="37" viewBox="0 0 103 37" fill="none" xmlns="http://www.w3.org/2000/svg">
<path d="M7.26735 12.9973C8.32738 12.9973 9.27326 13.2174 10.105 13.6578C10.953 14.0981 11.6135 14.7504 12.0864 15.6148C12.5594 16.4791 12.7959 17.5228 12.7959 18.7459V26.6962H10.0316V19.1618C10.0316 17.955 9.7299 17.0336 9.12649 16.3976C8.52308 15.7452 7.69952 15.4191 6.65579 15.4191C5.61206 15.4191 4.78033 15.7452 4.16062 16.3976C3.55721 17.0336 3.25551 17.955 3.25551 19.1618V26.6962H0.466797V13.2174H3.25551V14.7586C3.71214 14.2041 4.29109 13.7719 4.99234 13.4621C5.70991 13.1522 6.46824 12.9973 7.26735 12.9973Z" fill="#292929"/>
<path d="M22.1262 19.8712L26.4805 26.6962H23.3248L20.4138 22.1218L17.674 26.6962H14.763L19.1173 20.0669L14.763 13.2174H17.9186L20.8296 17.7919L23.5694 13.2174H26.4805L22.1262 19.8712Z" fill="#292929"/>
<path d="M31.8138 15.4924V22.9535C31.8138 23.459 31.928 23.826 32.1563 24.0543C32.4009 24.2663 32.8086 24.3723 33.3794 24.3723H35.0918V26.6962H32.8902C31.6345 26.6962 30.6723 26.4027 30.0036 25.8156C29.335 25.2285 29.0007 24.2744 29.0007 22.9535V15.4924H27.4106V13.2174H29.0007V9.86609H31.8138V13.2174H35.0918V15.4924H31.8138Z" fill="#292929"/>
<path d="M56.3717 17.7151C56.0742 18.2227 55.5746 18.541 55.0353 18.6302C55.0283 18.6302 55.0204 18.6302 55.0134 18.6322C54.9845 18.6372 54.9557 18.6391 54.9238 18.6441C54.8781 18.649 54.8323 18.651 54.7885 18.651C54.4064 17.722 53.7257 16.9081 52.7903 16.3647C52.4131 16.1456 52.0201 15.984 51.616 15.8789C51.6111 15.877 51.6091 15.877 51.6061 15.877C51.4588 15.8383 51.3115 15.8076 51.1613 15.7828C51.1543 15.7828 51.1493 15.7808 51.1424 15.7808C51.0578 15.7659 50.9752 15.754 50.8916 15.7471C50.8767 15.7421 50.8597 15.7421 50.8428 15.7421C50.7682 15.7352 50.6926 15.7272 50.6179 15.7253C49.7482 15.6727 48.8765 15.867 48.1102 16.2745C48.0694 16.2963 48.0256 16.3201 47.9848 16.3439C47.2843 16.7415 46.6752 17.3235 46.2434 18.0651C46.1518 18.2188 46.0722 18.3784 45.9995 18.537H45.9677C45.9528 18.537 45.9388 18.537 45.9239 18.535C45.9 18.533 45.8732 18.5301 45.8463 18.5251C45.8174 18.5202 45.7856 18.5152 45.7547 18.5102C45.7159 18.5033 45.6751 18.4914 45.6363 18.4815C45.6095 18.4746 45.5856 18.4666 45.5587 18.4597C45.4721 18.4329 45.3875 18.4022 45.303 18.3635C45.301 18.3615 45.296 18.3615 45.293 18.3586C45.2442 18.3367 45.1965 18.31 45.1507 18.2842C44.2451 17.7567 43.9376 16.5967 44.4671 15.6945C44.5178 15.6083 44.5705 15.5309 44.6312 15.4566C44.6502 15.4328 44.672 15.408 44.6939 15.3842C44.7158 15.3624 44.7347 15.3356 44.7596 15.3168C46.2284 13.7215 48.2963 12.858 50.407 12.8719H50.4089C50.5682 12.8739 50.7274 12.8788 50.8896 12.8937C51.0229 12.9006 51.1553 12.9125 51.2857 12.9294C52.2927 13.0474 53.2928 13.3696 54.2253 13.9109C54.9616 14.3372 55.5995 14.8686 56.1309 15.4774C56.1528 15.5042 56.1767 15.5299 56.1986 15.5567C56.6862 16.1486 56.7827 17.0082 56.3697 17.7131L56.3717 17.7151Z" fill="url(#paint0_linear_358_1513)"/>
<g filter="url(#filter0_d_358_1513)">
<path d="M47.1559 21.3399C46.8833 21.8069 46.4385 22.1152 45.9479 22.2283C45.9071 22.2382 45.8633 22.2501 45.8195 22.255C45.7876 22.26 45.7588 22.262 45.7279 22.2669C45.721 22.2689 45.716 22.2689 45.709 22.2689C45.1707 22.3581 44.6701 22.6784 44.3726 23.186C43.9596 23.8889 44.0561 24.7485 44.5437 25.3404C43.1595 23.7125 42.5346 21.5729 42.8072 19.469C42.9326 18.4964 43.2521 17.5318 43.7805 16.6285C44.0024 16.2508 44.2492 15.9018 44.5218 15.5796C44.5577 15.534 44.5945 15.4933 44.6333 15.4497C44.5726 15.5241 44.5199 15.6014 44.4691 15.6877C43.9397 16.5899 44.2472 17.7509 45.1528 18.2773C45.1985 18.3041 45.2473 18.3299 45.2951 18.3517C45.297 18.3537 45.302 18.3537 45.305 18.3566C45.3896 18.3953 45.4742 18.426 45.5608 18.4528C45.5876 18.4597 45.6115 18.4677 45.6384 18.4746C45.6772 18.4845 45.718 18.4964 45.7568 18.5034C45.7886 18.5083 45.8195 18.5133 45.8483 18.5182C45.8653 18.5202 45.8802 18.5232 45.8971 18.5282H45.8991C45.923 18.5331 45.9479 18.5381 45.9717 18.545C45.9787 18.547 45.9867 18.55 45.9936 18.552C46.1578 18.5926 46.32 18.658 46.4723 18.7473C47.3779 19.2747 47.6853 20.4367 47.1559 21.3399Z" fill="#292929"/>
</g>
<path d="M56.2752 25.2096C56.2245 25.2958 56.1718 25.3761 56.111 25.4475C56.0921 25.4743 56.0702 25.4961 56.0484 25.5199C56.0265 25.5417 56.0076 25.5685 55.9827 25.5893C54.5159 27.1826 52.448 28.0441 50.3373 28.0302H50.3353C50.0935 28.0302 49.8497 28.0154 49.6079 27.9896C49.5591 27.9846 49.5114 27.9797 49.4626 27.9727C49.393 27.9678 49.3253 27.9579 49.2576 27.946C49.185 27.9361 49.1123 27.9242 49.0407 27.9123C48.9511 27.8954 48.8616 27.8786 48.773 27.8597C48.6954 27.8429 48.6188 27.824 48.5391 27.8042C47.8485 27.6376 47.1669 27.3689 46.519 26.9932C45.7826 26.5649 45.1448 26.0325 44.6134 25.4267C44.5915 25.3979 44.5676 25.3712 44.5457 25.3444C44.0581 24.7525 43.9616 23.8929 44.3745 23.19C44.6721 22.6824 45.1716 22.3621 45.711 22.2729C45.718 22.2729 45.7229 22.2729 45.7299 22.2709C45.7617 22.266 45.7906 22.264 45.8215 22.259C45.8672 22.2541 45.913 22.2521 45.9568 22.2521C46.3389 23.1811 47.0196 23.995 47.955 24.5384C48.3322 24.7575 48.7252 24.9191 49.1292 25.0242C49.1342 25.0262 49.1362 25.0262 49.1392 25.0262C49.1611 25.0311 49.183 25.0361 49.2049 25.041C49.2148 25.043 49.2268 25.046 49.2387 25.048C49.2487 25.0499 49.2576 25.0499 49.2706 25.0549C49.2925 25.0599 49.3143 25.0648 49.3362 25.0698C49.4188 25.0886 49.5004 25.1055 49.585 25.1203C49.592 25.1203 49.597 25.1223 49.6039 25.1223C49.6885 25.1372 49.7711 25.1491 49.8547 25.156C49.8696 25.161 49.8865 25.161 49.9035 25.161C49.9781 25.1679 50.0537 25.1759 50.1284 25.1778C50.1522 25.1798 50.1791 25.1798 50.203 25.1828C50.2657 25.1848 50.3284 25.1878 50.3911 25.1878C50.6299 25.1878 50.8667 25.1709 51.1016 25.1352C51.1593 25.1283 51.218 25.1184 51.2727 25.1065C51.4608 25.0708 51.6469 25.0242 51.831 24.9667C51.9226 24.9379 52.0151 24.9062 52.1067 24.8705C52.1335 24.8606 52.1594 24.8487 52.1863 24.8368C52.3405 24.7763 52.4908 24.7069 52.6361 24.6296C52.6769 24.6078 52.7207 24.584 52.7615 24.5602C53.462 24.1626 54.0681 23.5826 54.5029 22.839C54.5945 22.6853 54.6741 22.5257 54.7467 22.3671C54.7975 22.3671 54.8462 22.372 54.899 22.379C54.9278 22.3839 54.9597 22.3889 54.9905 22.3939C55.1955 22.4345 55.4015 22.5099 55.5946 22.6199C56.5001 23.1474 56.8076 24.3074 56.2782 25.2096H56.2752Z" fill="url(#paint1_linear_358_1513)"/>
<g filter="url(#filter1_d_358_1513)">
<path d="M57.9371 21.4291C57.8117 22.4037 57.4922 23.3694 56.9638 24.2716C56.729 24.6692 56.4683 25.035 56.1767 25.3711L56.1747 25.3731C56.1558 25.3969 56.1339 25.4237 56.112 25.4475C56.1727 25.3751 56.2255 25.2958 56.2762 25.2095C56.8056 24.3073 56.4981 23.1463 55.5926 22.6198C55.3995 22.5088 55.1935 22.4344 54.9885 22.3938C54.9567 22.3888 54.9258 22.3839 54.897 22.3789C54.8462 22.372 54.7974 22.3601 54.7517 22.3452C54.5875 22.3046 54.4253 22.2391 54.273 22.1499C53.3675 21.6224 53.06 20.4624 53.5894 19.5602C53.862 19.0913 54.3069 18.7829 54.7974 18.6699C54.8382 18.66 54.882 18.6511 54.9258 18.6431C54.9577 18.6382 54.9865 18.6362 55.0154 18.6312C55.0223 18.6293 55.0303 18.6293 55.0373 18.6293C55.5756 18.54 56.0762 18.2228 56.3737 17.7141C56.7867 17.0092 56.6902 16.1496 56.2026 15.5577C57.5868 17.1847 58.2127 19.3243 57.9391 21.4281L57.9371 21.4291Z" fill="#292929"/>
</g>
<path fill-rule="evenodd" clip-rule="evenodd" d="M49.9822 15.7304C50.1932 15.7143 50.4056 15.7124 50.6179 15.7253C50.6827 15.727 50.7481 15.7332 50.813 15.7393C50.823 15.7403 50.8329 15.7412 50.8428 15.7421H50.8428C50.8598 15.7421 50.8767 15.7421 50.8916 15.7471C50.9752 15.754 51.0578 15.7659 51.1424 15.7808C51.1459 15.7808 51.1488 15.7813 51.1518 15.7818C51.1548 15.7823 51.1578 15.7828 51.1613 15.7828C51.3115 15.8076 51.4588 15.8383 51.6061 15.877C51.6091 15.877 51.6111 15.877 51.6161 15.8789C52.0201 15.984 52.4132 16.1456 52.7903 16.3647C53.7257 16.9081 54.4064 17.722 54.7885 18.651C54.8323 18.651 54.8781 18.649 54.9239 18.6441C54.9388 18.6418 54.9531 18.6401 54.967 18.6385C54.9828 18.6366 54.9981 18.6348 55.0134 18.6322C55.0204 18.6302 55.0283 18.6302 55.0353 18.6302C55.5747 18.541 56.0742 18.2227 56.3718 17.7151L56.3698 17.7131C56.7827 17.0082 56.6862 16.1486 56.1986 15.5567C56.1877 15.5433 56.1762 15.5302 56.1648 15.5171C56.1533 15.5039 56.1419 15.4908 56.1309 15.4774C55.5995 14.8686 54.9617 14.3372 54.2253 13.9109C53.2928 13.3696 52.2927 13.0474 51.2857 12.9294C51.1553 12.9125 51.023 12.9006 50.8896 12.8937C50.7274 12.8788 50.5682 12.8739 50.409 12.8719H50.407C50.2651 12.8709 50.1235 12.874 49.9822 12.8809V15.7304Z" fill="url(#paint2_linear_358_1513)"/>
<path d="M62.5004 15.2236C62.9733 14.5712 63.6175 14.0412 64.4329 13.6335C65.2646 13.2095 66.1861 12.9975 67.1972 12.9975C68.3877 12.9975 69.464 13.2829 70.4262 13.8537C71.3884 14.4244 72.1467 15.2399 72.7012 16.2999C73.2557 17.3436 73.5329 18.5423 73.5329 19.8959C73.5329 21.2495 73.2557 22.4644 72.7012 23.5408C72.1467 24.6008 71.3802 25.4325 70.4017 26.0359C69.4396 26.623 68.3714 26.9166 67.1972 26.9166C66.1534 26.9166 65.2239 26.7127 64.4085 26.305C63.6093 25.8973 62.9733 25.3755 62.5004 24.7394V26.6964H59.7117V8.59424H62.5004V15.2236ZM70.6953 19.8959C70.6953 18.9663 70.4996 18.1672 70.1082 17.4986C69.7331 16.8136 69.2275 16.2999 68.5915 15.9574C67.9718 15.5986 67.3032 15.4192 66.5856 15.4192C65.8844 15.4192 65.2157 15.5986 64.5797 15.9574C63.96 16.3162 63.4544 16.8381 63.063 17.523C62.6879 18.208 62.5004 19.0152 62.5004 19.9448C62.5004 20.8744 62.6879 21.6898 63.063 22.391C63.4544 23.076 63.96 23.5978 64.5797 23.9566C65.2157 24.3154 65.8844 24.4948 66.5856 24.4948C67.3032 24.4948 67.9718 24.3154 68.5915 23.9566C69.2275 23.5815 69.7331 23.0434 70.1082 22.3421C70.4996 21.6409 70.6953 20.8254 70.6953 19.8959Z" fill="#292929"/>
<path d="M39.0809 11.4317C38.5753 11.4317 38.1513 11.2605 37.8089 10.918C37.4664 10.5756 37.2951 10.1515 37.2951 9.64599C37.2951 9.14043 37.4664 8.71641 37.8089 8.37394C38.1513 8.03147 38.5753 7.86023 39.0809 7.86023C39.5702 7.86023 39.986 8.03147 40.3285 8.37394C40.671 8.71641 40.8422 9.14043 40.8422 9.64599C40.8422 10.1515 40.671 10.5756 40.3285 10.918C39.986 11.2605 39.5702 11.4317 39.0809 11.4317ZM40.4508 29.3382C40.4508 30.6592 40.1165 31.6132 39.4478 32.2003C38.7955 32.8037 37.8415 33.1054 36.5857 33.1054H35.1425V30.757H36.0965C36.6673 30.757 37.0668 30.6429 37.2951 30.4146C37.5398 30.2026 37.6621 29.8438 37.6621 29.3382V13.2175H40.4508V29.3382Z" fill="#292929"/>
<path d="M76.4932 27.1711C75.9876 27.1711 75.5636 26.9999 75.2211 26.6574C74.8786 26.3149 74.7074 25.8909 74.7074 25.3854C74.7074 24.8798 74.8786 24.4558 75.2211 24.1133C75.5636 23.7708 75.9876 23.5996 76.4932 23.5996C76.9824 23.5996 77.3983 23.7708 77.7407 24.1133C78.0832 24.4558 78.2544 24.8798 78.2544 25.3854C78.2544 25.8909 78.0832 26.3149 77.7407 26.6574C77.3983 26.9999 76.9824 27.1711 76.4932 27.1711ZM80.3389 20.1993C80.3389 18.8457 80.6162 17.6471 81.1706 16.6034C81.7414 15.5596 82.5079 14.7524 83.4701 14.1816C84.4486 13.5945 85.5249 13.3009 86.6991 13.3009C87.7592 13.3009 88.6806 13.5129 89.4634 13.937C90.2625 14.3447 90.8985 14.8584 91.3715 15.4781V13.5211H94.1846V26.9999H91.3715V24.994C90.8985 25.63 90.2543 26.16 89.4389 26.584C88.6235 27.008 87.6939 27.22 86.6502 27.22C85.4923 27.22 84.4323 26.9265 83.4701 26.3394C82.5079 25.736 81.7414 24.9043 81.1706 23.8442C80.6162 22.7679 80.3389 21.5529 80.3389 20.1993ZM91.3715 20.2483C91.3715 19.3187 91.1758 18.5114 90.7844 17.8265C90.4093 17.1415 89.9119 16.6197 89.2922 16.2609C88.6724 15.9021 88.0038 15.7227 87.2862 15.7227C86.5687 15.7227 85.9 15.9021 85.2803 16.2609C84.6606 16.6034 84.155 17.1171 83.7636 17.802C83.3886 18.4707 83.201 19.2698 83.201 20.1993C83.201 21.1289 83.3886 21.9443 83.7636 22.6456C84.155 23.3468 84.6606 23.885 85.2803 24.2601C85.9163 24.6189 86.585 24.7983 87.2862 24.7983C88.0038 24.7983 88.6724 24.6189 89.2922 24.2601C89.9119 23.9013 90.4093 23.3794 90.7844 22.6945C91.1758 21.9932 91.3715 21.1778 91.3715 20.2483ZM99.2663 11.7353C98.7608 11.7353 98.3367 11.5641 97.9943 11.2216C97.6518 10.8792 97.4806 10.4551 97.4806 9.94958C97.4806 9.44402 97.6518 9.02001 97.9943 8.67753C98.3367 8.33506 98.7608 8.16382 99.2663 8.16382C99.7556 8.16382 100.171 8.33506 100.514 8.67753C100.856 9.02001 101.028 9.44402 101.028 9.94958C101.028 10.4551 100.856 10.8792 100.514 11.2216C100.171 11.5641 99.7556 11.7353 99.2663 11.7353ZM100.636 13.5211V26.9999H97.8475V13.5211H100.636Z" fill="#292929"/>
<defs>
<filter id="filter0_d_358_1513" x="42.7446" y="14.6565" width="5.46381" height="10.6839" filterUnits="userSpaceOnUse" color-interpolation-filters="sRGB">
<feFlood flood-opacity="0" result="BackgroundImageFix"/>
<feColorMatrix in="SourceAlpha" type="matrix" values="0 0 0 0 0 0 0 0 0 0 0 0 0 0 0 0 0 0 127 0" result="hardAlpha"/>
<feOffset dx="0.39658" dy="-0.39658"/>
<feGaussianBlur stdDeviation="0.19829"/>
<feComposite in2="hardAlpha" operator="out"/>
<feColorMatrix type="matrix" values="0 0 0 0 0 0 0 0 0 0 0 0 0 0 0 0 0 0 0.25 0"/>
<feBlend mode="normal" in2="BackgroundImageFix" result="effect1_dropShadow_358_1513"/>
<feBlend mode="normal" in="SourceGraphic" in2="effect1_dropShadow_358_1513" result="shape"/>
</filter>
<filter id="filter1_d_358_1513" x="52.5369" y="15.5577" width="5.46503" height="10.6829" filterUnits="userSpaceOnUse" color-interpolation-filters="sRGB">
<feFlood flood-opacity="0" result="BackgroundImageFix"/>
<feColorMatrix in="SourceAlpha" type="matrix" values="0 0 0 0 0 0 0 0 0 0 0 0 0 0 0 0 0 0 127 0" result="hardAlpha"/>
<feOffset dx="-0.39658" dy="0.39658"/>
<feGaussianBlur stdDeviation="0.19829"/>
<feComposite in2="hardAlpha" operator="out"/>
<feColorMatrix type="matrix" values="0 0 0 0 0 0 0 0 0 0 0 0 0 0 0 0 0 0 0.25 0"/>
<feBlend mode="normal" in2="BackgroundImageFix" result="effect1_dropShadow_358_1513"/>
<feBlend mode="normal" in="SourceGraphic" in2="effect1_dropShadow_358_1513" result="shape"/>
</filter>
<linearGradient id="paint0_linear_358_1513" x1="44.2103" y1="15.7619" x2="56.6315" y2="15.7619" gradientUnits="userSpaceOnUse">
<stop stop-color="#57A4F2"/>
<stop offset="0.25" stop-color="#8246FD"/>
<stop offset="0.91" stop-color="#FF1FDC"/>
</linearGradient>
<linearGradient id="paint1_linear_358_1513" x1="44.1128" y1="25.1412" x2="56.535" y2="25.1412" gradientUnits="userSpaceOnUse">
<stop stop-color="#57A4F2"/>
<stop offset="0.25" stop-color="#8246FD"/>
<stop offset="0.91" stop-color="#FF1FDC"/>
</linearGradient>
<linearGradient id="paint2_linear_358_1513" x1="44.16" y1="15.7619" x2="56.6315" y2="15.7619" gradientUnits="userSpaceOnUse">
<stop stop-color="#57A4F2"/>
<stop offset="0.25" stop-color="#8246FD"/>
<stop offset="0.91" stop-color="#FF1FDC"/>
</linearGradient>
</defs>
</svg>
